<svg xmlns="http://www.w3.org/2000/svg" width="42.08" height="52.594" viewBox="0 0 42.08 52.594">
  <g id="doctor_3_" data-name="doctor (3)" transform="translate(0)">
    <path id="Path_9819" data-name="Path 9819" d="M184.6,0H176.92V4.573h3.1V13.72H184.6Z" transform="translate(-161.949)" fill="#00de9a"/>
    <path id="Path_9820" data-name="Path 9820" d="M60.553,4.573h3.1V0H55.98V13.72h4.573Z" transform="translate(-54.837)" fill="#00de9a"/>
    <path id="Path_9821" data-name="Path 9821" d="M153.345,126.581v18.344a9.376,9.376,0,0,1-18.751,0v-5.1a11.916,11.916,0,0,0,9.609-11.674V120h-6.86v8.156a5.041,5.041,0,0,1-5.035,5.035v6.86a11.907,11.907,0,0,1-2.287-.221v5.1a13.949,13.949,0,0,0,27.9,0V126.581a6.843,6.843,0,0,1-4.573,0Z" transform="translate(-120.412 -106.28)" fill="#2361b5"/>
    <path id="Path_9822" data-name="Path 9822" d="M300.881,70.147a2.287,2.287,0,0,1,0-4.573V61a6.86,6.86,0,0,0,0,13.72Z" transform="translate(-265.661 -54.026)" fill="#1894ff"/>
    <path id="Path_9823" data-name="Path 9823" d="M360.88,67.86A6.868,6.868,0,0,0,354.02,61v4.573a2.287,2.287,0,1,1,0,4.573V74.72a6.864,6.864,0,0,0,6.86-6.86Z" transform="translate(-318.8 -54.026)" fill="#2361b5"/>
    <path id="Path_9824" data-name="Path 9824" d="M334.021,103.287A2.287,2.287,0,1,0,336.308,101,2.289,2.289,0,0,0,334.021,103.287Z" transform="translate(-301.088 -89.452)" fill="#fff"/>
    <path id="Path_9825" data-name="Path 9825" d="M57.875,133.191a5.041,5.041,0,0,1-5.035-5.035V120H45.98v8.156a11.893,11.893,0,0,0,11.9,11.9Z" transform="translate(-45.98 -106.28)" fill="#1894ff"/>
  </g>
</svg>
