<svg xmlns="http://www.w3.org/2000/svg" width="138.464" height="160.587" viewBox="0 0 138.464 160.587"><g transform="translate(-104.955 -56.31)"><path d="M242.478,91.162V214.187H115.89V56.31H204.9" transform="translate(-10.935)" fill="#e6f3ff"/><path d="M230.79,56.31V91.162h37.579Z" transform="translate(-36.826)" fill="#cde7ff"/><rect width="11.666" height="31.847" transform="translate(160.94 90.271)" fill="#00de9a"/><rect width="11.666" height="31.847" transform="translate(182.692 100.358) rotate(90)" fill="#00de9a"/><rect width="92.565" height="49.315" transform="translate(122.361 132.692)" fill="#1894ff" opacity="0.11"/><rect width="42.576" height="64.212" transform="translate(195.149 149.905)" fill="#1894ff"/><rect width="53.963" height="16.26" rx="6.14" transform="translate(189.455 143.739)" fill="#1894ff"/><rect width="53.963" height="16.26" rx="6.14" transform="translate(189.455 143.739)" fill="#e6f3ff" opacity="0.13"/><rect width="42.576" height="27.323" transform="translate(195.149 173.587)" fill="#e6f3ff" opacity="0.46"/><path d="M243.413,234.47s15.276,1.913,1.054,19.777H232.32l3.424-17.755Z" transform="translate(-37.171 -40.145)" opacity="0.08"/><path d="M5.028,0H6.577A5.043,5.043,0,0,1,11.62,5.043v8.614H0V5.043A5.043,5.043,0,0,1,5.028,0Z" transform="translate(198.282 187.514) rotate(31.17)" fill="#00de9a"/><path d="M.015,0h11.62V8.614a5.043,5.043,0,0,1-5.043,5.043H5.043A5.043,5.043,0,0,1,0,8.614V0Z" transform="translate(191.181 199.185) rotate(31.17)" fill="#1894ff"/><path d="M5.028,0H6.577A5.043,5.043,0,0,1,11.62,5.043v8.614H0V5.043A5.043,5.043,0,0,1,5.028,0Z" transform="translate(184.871 187.515) rotate(31.17)" fill="#00de9a"/><path d="M.015,0h11.62V8.614a5.043,5.043,0,0,1-5.043,5.043H5.043A5.043,5.043,0,0,1,0,8.614V0Z" transform="translate(177.777 199.189) rotate(31.17)" fill="#1894ff"/><rect width="31.645" height="9.8" transform="translate(122.361 191.11)" fill="#1894ff" opacity="0.13"/></g></svg>