<svg xmlns="http://www.w3.org/2000/svg" width="262.259" height="195.659" viewBox="0 0 262.259 195.659">
  <g id="health__two_color_1_" data-name="health__two_color (1)" transform="translate(0 0)">
    <path id="Path_14311" data-name="Path 14311" d="M248.2,104.23s-22.728,5.307-27.578,29.781-5.217,45.979-18.567,46.724-22.995-50.429-22.995-50.429L169.05,132.9s10.368,111.248,64.524,59.329S248.2,104.23,248.2,104.23Z" transform="translate(-80.42 -35.772)" fill="#f4a28c"/>
    <path id="Path_14312" data-name="Path 14312" d="M245.86,103.54s-37.568,3.749-39.86,66.815l33.118,19.58Z" transform="translate(-75.641 -35.85)" fill="#1894ff"/>
    <path id="Path_14313" data-name="Path 14313" d="M246.389,103.54S208.322,107.289,206,170.355l33.558,19.58Z" transform="translate(-76.18 -35.85)" fill="#e6f3ff"/>
    <path id="Path_14314" data-name="Path 14314" d="M259.809,73.005s-1.591,7.632-.9,12.916a3.927,3.927,0,0,0,4.45,3.337c2.659-.389,6.141-1.68,7.487-5.663l3.115-6.5a6.986,6.986,0,0,0-2.225-7.787C267.752,65.685,260.543,68.31,259.809,73.005Z" transform="translate(-67.831 -39.891)" fill="#f4a28c"/>
    <path id="Path_14315" data-name="Path 14315" d="M273.2,77.23l1.012,25.531-14.106-.445,4.928-18.4Z" transform="translate(-67.661 -38.809)" fill="#f4a28c"/>
    <path id="Path_14316" data-name="Path 14316" d="M255.879,64.514c-.353,2.837,1.517,6.66,4.422,8.977s4.8.468,7.2.289a6.508,6.508,0,0,0-.834,7.086,5.273,5.273,0,0,0,6.1,2.848L273.873,73.7a7.965,7.965,0,0,0-3.159-7.509,10.181,10.181,0,0,0-6.792-2.684" transform="translate(-66.425 -39.82)"/>
    <path id="Path_14317" data-name="Path 14317" d="M266.39,79.557s.412-2.981,2.625-2.481,1.635,4.795-1.457,4.839Z" transform="translate(-66.99 -38.833)" fill="#f4a28c"/>
    <path id="Path_14318" data-name="Path 14318" d="M259.286,76.83l-2.5,2.726a1.246,1.246,0,0,0,.545,2.036l2.892.912Z" transform="translate(-68.559 -38.854)" fill="#f4a28c"/>
    <path id="Path_14319" data-name="Path 14319" d="M263.58,87.039a9.267,9.267,0,0,0,4.85-2.169s-.756,4.595-6.43,8.6Z" transform="translate(-67.605 -37.95)" fill="#ce8172" opacity="0.31"/>
    <path id="Path_14320" data-name="Path 14320" d="M278.3,100.225l-14.106-.445s-37.824.59-40.149,28.146,13.773,49.049,8.4,70.553l51.3,6.541S367.831,120.528,278.3,100.225Z" transform="translate(-69.499 -36.273)" fill="#e6f3ff"/>
    <path id="Path_14321" data-name="Path 14321" d="M284.147,116.9s-17.355,13.884-5.807,38.792,4.45,32.807-12.882,28.212-24.285-23.362-24.285-23.362l-8.5,26.332a34.954,34.954,0,0,1-1.112,9.645l51.3,6.541,1.858-1.947,23.228-32.651Z" transform="translate(-68.628 -34.347)" fill="#1894ff" opacity="0.08"/>
    <rect id="Rectangle_1945" data-name="Rectangle 1945" width="35.41" height="51.463" transform="translate(131.191 106.059) rotate(-6.62)" fill="#1894ff"/>
    <path id="Path_14322" data-name="Path 14322" d="M228.569,159.454s-9.423,4.383-1.112,12.137,6.03,12.816,6.03,12.816l12.349-1.435-.979-8.377L232.4,156.45Z" transform="translate(-73.202 -29.898)" opacity="0.08"/>
    <rect id="Rectangle_1946" data-name="Rectangle 1946" width="18.434" height="7.22" transform="translate(138.566 101.544) rotate(-6.62)" fill="#ffd200"/>
    <rect id="Rectangle_1947" data-name="Rectangle 1947" width="18.434" height="7.22" transform="translate(138.566 101.544) rotate(-6.62)" fill="#2361b5"/>
    <path id="Path_14323" data-name="Path 14323" d="M282.136,136.323c-8.711-16.81,11.637-33.664,26.7-22.161,7.9,6.041,15.33,14.774,17.688,27.011,5.718,29.57,2.358,56.113-17.8,63.834s-72.934-30.526-72.934-30.526l6.675-11.125s46.034,32.929,57.115,10.424C306.61,159.6,289.634,150.83,282.136,136.323Z" transform="translate(-68.152 -35.08)" fill="#f4a28c"/>
    <path id="Path_14325" data-name="Path 14325" d="M231.744,188.5l-1.724,33.452h60.975l-7.954-26.911Z" transform="translate(-70.895 -26.293)" fill="#e6f3ff"/>
    <path id="Path_14327" data-name="Path 14327" d="M258.182,82.373s-1.48,6.308,3.26,6.964,9-8.344,9-8.344-3.972.6-2.6-3C267.838,78,262.454,81.806,258.182,82.373Z" transform="translate(-68.055 -38.723)" fill="#1894ff"/>
    <path id="Path_14328" data-name="Path 14328" d="M301.217,111.349s26.922,6.831,24.831,61.743H293.674s-.078-7.454-7.576-16.1C273.038,141.942,260.7,100.191,301.217,111.349Z" transform="translate(-63.904 -35.182)" fill="#1894ff"/>
    <path id="Path_14329" data-name="Path 14329" d="M301.461,111.366s27.16,6.891,25.05,62.288H293.852s-.079-7.519-7.643-16.24C273.033,142.229,260.587,100.109,301.461,111.366Z" transform="translate(-64.369 -35.743)" fill="#e6f3ff"/>
    <path id="Path_14330" data-name="Path 14330" d="M243.373,159.228S238,147.28,234.028,147.091s-5.685,3.415-4.928,8.143-5.9,8.388,7.554,15.085Z" transform="translate(-72.724 -30.952)" fill="#f4a28c"/>
    <path id="Path_14331" data-name="Path 14331" d="M170.791,137.209l10.112-4.628s3.816-11.67,0-12.048-6.73,3.794-10.858,2.08-13.784-.768-8.1,6.241S170.791,137.209,170.791,137.209Z" transform="translate(-83.454 -33.941)" fill="#f4a28c"/>
    <rect id="Rectangle_1948" data-name="Rectangle 1948" width="15.897" height="23.974" transform="translate(80.043 66.177)" fill="#1894ff"/>
    <rect id="Rectangle_1949" data-name="Rectangle 1949" width="20.147" height="6.074" rx="2.73" transform="translate(97.583 34.096) rotate(60.37)" fill="#1894ff"/>
    <rect id="Rectangle_1950" data-name="Rectangle 1950" width="20.147" height="6.074" rx="2.73" transform="translate(97.583 34.096) rotate(60.37)" opacity="0.13"/>
    <rect id="Rectangle_1952" data-name="Rectangle 1952" width="15.897" height="10.201" transform="translate(80.043 75.022)" fill="#2361b5" opacity="0.46"/>
    <rect id="Rectangle_1953" data-name="Rectangle 1953" width="4.795" height="13.094" transform="translate(25.787 74.179)" fill="#00de9a"/>
    <rect id="Rectangle_1954" data-name="Rectangle 1954" width="4.795" height="13.094" transform="translate(34.743 78.329) rotate(90)" fill="#00de9a"/>
    <path id="Path_14333" data-name="Path 14333" d="M183.95,108.007s8.522-5.852-2.225-10.658,1.112-16.454-8.8-23.273-24.719.59-29.826-13.049-28.335-14.763-36.89,0S93.628,100.164,113.8,97.35s44.877-7.654,43.743,5.985,12.771,4.672,12.771,4.672Z" transform="translate(-93.516 -41.83)" fill="#e6f3ff"/>
    <path id="Path_14334" data-name="Path 14334" d="M5.651,0h0A5.651,5.651,0,0,1,11.3,5.651v7.654H0V5.651A5.651,5.651,0,0,1,5.651,0Z" transform="translate(42.928 26.974) rotate(-135.79)" fill="#2361b5"/>
    <path id="Path_14335" data-name="Path 14335" d="M0,0H11.314V7.654a5.651,5.651,0,0,1-5.651,5.651h0A5.651,5.651,0,0,1,.011,7.654V0Z" transform="translate(54.091 17.426) rotate(-135.79)" fill="#00de9a"/>
    <circle id="Ellipse_56" data-name="Ellipse 56" cx="9.912" cy="9.912" r="9.912" transform="translate(1.101 15.493)" fill="#2361b5"/>
    <circle id="Ellipse_57" data-name="Ellipse 57" cx="9.912" cy="9.912" r="9.912" transform="translate(0 12.912)" fill="#1894ff"/>
    <path id="Path_14336" data-name="Path 14336" d="M108.32,63.064l-8.344,3.582a1.78,1.78,0,0,1-1.4-3.271l8.344-3.571a1.774,1.774,0,1,1,1.4,3.26Z" transform="translate(-93.702 -40.785)" fill="#fff"/>
    <rect id="Rectangle_1958" data-name="Rectangle 1958" width="14.3" height="30.165" rx="6.432" transform="translate(40.792 34.578) rotate(21.161)" fill="#2361b5"/>
    <rect id="Rectangle_1959" data-name="Rectangle 1959" width="14.34" height="30.248" rx="6.45" transform="translate(43.716 36.113) rotate(21.22)" fill="#1894ff"/>
    <rect id="Rectangle_1960" data-name="Rectangle 1960" width="10.646" height="2.703" rx="1.21" transform="translate(40.452 49.62) rotate(21.22)" fill="#fff"/>
  </g>
</svg>
