<svg id="wish-list" xmlns="http://www.w3.org/2000/svg" width="52.814" height="52.132" viewBox="0 0 52.814 52.132">
  <g id="Group_4150" data-name="Group 4150" transform="translate(0 10.625)">
    <g id="Group_4149" data-name="Group 4149">
      <path id="Path_9744" data-name="Path 9744" d="M91.253,158.216h52.814v41.507H91.253Z" transform="translate(-91.253 -158.216)" fill="#1894ff"/>
    </g>
  </g>
  <g id="Group_4152" data-name="Group 4152" transform="translate(26.426 10.625)">
    <g id="Group_4151" data-name="Group 4151">
      <path id="Path_9745" data-name="Path 9745" d="M256.121,158.216h26.388v41.507H256.121Z" transform="translate(-256.121 -158.216)" fill="#2361b5"/>
    </g>
  </g>
  <g id="Group_4154" data-name="Group 4154" transform="translate(0 4.232)">
    <g id="Group_4153" data-name="Group 4153">
      <path id="Path_9746" data-name="Path 9746" d="M91.253,118.333h26.466v9.541H91.253Z" transform="translate(-91.253 -118.333)" fill="#1894ff"/>
    </g>
  </g>
  <g id="Group_4156" data-name="Group 4156" transform="translate(26.426 4.232)">
    <g id="Group_4155" data-name="Group 4155">
      <path id="Path_9747" data-name="Path 9747" d="M256.121,118.333h26.388v9.541H256.121Z" transform="translate(-256.121 -118.333)" fill="#2361b5"/>
    </g>
  </g>
  <g id="Group_4185" data-name="Group 4185" transform="translate(5.965 17.893)">
    <g id="Group_4163" data-name="Group 4163">
      <g id="Group_4158" data-name="Group 4158">
        <g id="Group_4157" data-name="Group 4157">
          <path id="Path_9748" data-name="Path 9748" d="M128.468,203.556h7.279v7.279h-7.279Z" transform="translate(-128.468 -203.556)" fill="#fff"/>
        </g>
      </g>
      <g id="Group_4160" data-name="Group 4160" transform="translate(0 21.538)">
        <g id="Group_4159" data-name="Group 4159">
          <path id="Path_9749" data-name="Path 9749" d="M128.468,337.925h7.279V345.2h-7.279Z" transform="translate(-128.468 -337.925)" fill="#fff"/>
        </g>
      </g>
      <g id="Group_4162" data-name="Group 4162" transform="translate(0 10.769)">
        <g id="Group_4161" data-name="Group 4161">
          <path id="Path_9750" data-name="Path 9750" d="M128.468,270.741h7.279v7.279h-7.279Z" transform="translate(-128.468 -270.741)" fill="#fff"/>
        </g>
      </g>
    </g>
    <g id="Group_4170" data-name="Group 4170" transform="translate(11.202)">
      <g id="Group_4165" data-name="Group 4165">
        <g id="Group_4164" data-name="Group 4164">
          <path id="Path_9751" data-name="Path 9751" d="M198.352,203.556h7.279v7.279h-7.279Z" transform="translate(-198.352 -203.556)" fill="#fff"/>
        </g>
      </g>
      <g id="Group_4167" data-name="Group 4167" transform="translate(0 21.538)">
        <g id="Group_4166" data-name="Group 4166">
          <path id="Path_9752" data-name="Path 9752" d="M198.352,337.925h7.279V345.2h-7.279Z" transform="translate(-198.352 -337.925)" fill="#fff"/>
        </g>
      </g>
      <g id="Group_4169" data-name="Group 4169" transform="translate(0 10.769)">
        <g id="Group_4168" data-name="Group 4168">
          <path id="Path_9753" data-name="Path 9753" d="M198.352,270.741h7.279v7.279h-7.279Z" transform="translate(-198.352 -270.741)" fill="#fff"/>
        </g>
      </g>
    </g>
    <g id="Group_4177" data-name="Group 4177" transform="translate(22.403)">
      <g id="Group_4172" data-name="Group 4172">
        <g id="Group_4171" data-name="Group 4171">
          <path id="Path_9754" data-name="Path 9754" d="M268.236,203.556h7.279v7.279h-7.279Z" transform="translate(-268.236 -203.556)" fill="#fff"/>
        </g>
      </g>
      <g id="Group_4174" data-name="Group 4174" transform="translate(0 21.538)">
        <g id="Group_4173" data-name="Group 4173">
          <path id="Path_9755" data-name="Path 9755" d="M268.236,337.925h7.279V345.2h-7.279Z" transform="translate(-268.236 -337.925)" fill="#fff"/>
        </g>
      </g>
      <g id="Group_4176" data-name="Group 4176" transform="translate(0 10.769)">
        <g id="Group_4175" data-name="Group 4175">
          <path id="Path_9756" data-name="Path 9756" d="M268.236,270.741h7.279v7.279h-7.279Z" transform="translate(-268.236 -270.741)" fill="#fff"/>
        </g>
      </g>
    </g>
    <g id="Group_4184" data-name="Group 4184" transform="translate(33.605)">
      <g id="Group_4179" data-name="Group 4179">
        <g id="Group_4178" data-name="Group 4178">
          <path id="Path_9757" data-name="Path 9757" d="M338.12,203.556H345.4v7.279H338.12Z" transform="translate(-338.12 -203.556)" fill="#fff"/>
        </g>
      </g>
      <g id="Group_4181" data-name="Group 4181" transform="translate(0 21.538)">
        <g id="Group_4180" data-name="Group 4180">
          <path id="Path_9758" data-name="Path 9758" d="M338.12,337.925H345.4V345.2H338.12Z" transform="translate(-338.12 -337.925)" fill="#fff"/>
        </g>
      </g>
      <g id="Group_4183" data-name="Group 4183" transform="translate(0 10.769)">
        <g id="Group_4182" data-name="Group 4182">
          <path id="Path_9759" data-name="Path 9759" d="M338.12,270.741H345.4v7.279H338.12Z" transform="translate(-338.12 -270.741)" fill="#fff"/>
        </g>
      </g>
    </g>
  </g>
  <g id="Group_4187" data-name="Group 4187" transform="translate(5.965 0)">
    <g id="Group_4186" data-name="Group 4186">
      <path id="Path_9760" data-name="Path 9760" d="M128.468,91.929H134.7v9h-6.236Z" transform="translate(-128.468 -91.929)" fill="#2361b5"/>
    </g>
  </g>
  <g id="Group_4189" data-name="Group 4189" transform="translate(40.613 0)">
    <g id="Group_4188" data-name="Group 4188">
      <path id="Path_9761" data-name="Path 9761" d="M344.625,91.929h6.236v9h-6.236Z" transform="translate(-344.625 -91.929)" fill="#1894ff"/>
    </g>
  </g>
  <g id="Group_4191" data-name="Group 4191" transform="translate(23.289 0)">
    <g id="Group_4190" data-name="Group 4190">
      <path id="Path_9762" data-name="Path 9762" d="M236.547,91.929h6.236v9h-6.236Z" transform="translate(-236.547 -91.929)" fill="#2361b5"/>
    </g>
  </g>
  <g id="Group_4193" data-name="Group 4193" transform="translate(26.426 0)">
    <g id="Group_4192" data-name="Group 4192">
      <path id="Path_9763" data-name="Path 9763" d="M256.121,91.929h3.1v9h-3.1Z" transform="translate(-256.121 -91.929)" fill="#1894ff"/>
    </g>
  </g>
</svg>
